<?xml version="1.0" standalone="no"?>
<!DOCTYPE svg PUBLIC "-//W3C//DTD SVG 20010904//EN"
 "http://www.w3.org/TR/2001/REC-SVG-20010904/DTD/svg10.dtd">
<svg version="1.0" xmlns="http://www.w3.org/2000/svg"
 width="192.000000pt" height="192.000000pt" viewBox="0 0 192.000000 192.000000"
 preserveAspectRatio="xMidYMid meet">
<metadata>
Created by potrace 1.14, written by Peter Selinger 2001-2017
</metadata>
<g transform="translate(0.000000,192.000000) scale(0.100000,-0.100000)"
fill="#000000" stroke="none">
<path d="M802 1830 c-232 -33 -448 -180 -579 -396 -29 -48 -47 -93 -89 -229
-27 -86 -25 -273 3 -372 47 -161 143 -311 269 -419 83 -73 153 -111 274 -152
99 -33 112 -35 240 -35 119 0 146 3 225 27 114 34 208 85 295 158 76 64 173
187 209 266 14 28 28 52 33 52 5 0 7 4 4 9 -4 5 3 47 14 93 11 45 20 113 20
150 0 37 5 78 11 92 9 19 9 29 0 39 -6 8 -12 27 -12 43 -1 16 -11 55 -22 86
-15 45 -17 61 -8 72 9 10 8 15 -2 19 -8 3 -26 30 -41 60 -39 77 -150 212 -220
269 -77 62 -193 121 -285 147 -86 24 -248 34 -339 21z"/>
</g>
</svg>
